<?xml version="1.0" standalone="no"?>
<!DOCTYPE svg PUBLIC "-//W3C//DTD SVG 20010904//EN"
 "http://www.w3.org/TR/2001/REC-SVG-20010904/DTD/svg10.dtd">
<svg version="1.0" xmlns="http://www.w3.org/2000/svg"
 width="200.000000pt" height="200.000000pt" viewBox="0 0 200.000000 200.000000"
 preserveAspectRatio="xMidYMid meet">

<g transform="translate(0.000000,200.000000) scale(0.100000,-0.100000)"
fill="#000000" stroke="none">
<path d="M975 1758 c-3 -7 -6 -82 -7 -167 l-3 -153 -270 -99 c-148 -55 -301
-111 -338 -125 l-68 -26 3 -87 3 -86 45 -5 45 -5 0 -260 0 -260 -45 -5 -45 -5
0 -90 0 -90 705 0 705 0 0 90 0 90 -42 3 -43 3 0 264 0 264 43 3 42 3 3 87 3
86 -43 16 c-24 9 -176 65 -338 125 l-295 109 0 43 c0 43 1 44 36 47 30 3 37
-1 47 -23 11 -24 15 -25 101 -25 64 0 92 4 100 14 8 9 11 50 9 117 l-3 104
-68 3 c-62 3 -69 5 -77 27 -9 24 -13 25 -105 25 -67 0 -97 -4 -100 -12z m135
-104 l0 -55 -37 3 c-36 3 -38 5 -41 42 -5 55 2 66 43 66 l35 0 0 -56z m150
-49 l0 -55 -40 0 -40 0 0 48 c0 58 3 62 47 62 l33 0 0 -55z m65 -347 c165 -61
306 -115 313 -121 7 -6 12 -22 10 -36 l-3 -26 -645 0 -645 0 -3 24 c-2 13 1
28 8 35 17 18 633 244 650 239 8 -2 150 -54 315 -115z m-817 -515 l2 -263 -30
0 -30 0 0 258 c0 142 3 262 7 266 4 4 16 6 28 4 19 -3 20 -10 23 -265z m220 0
l2 -263 -75 0 -75 0 0 265 0 266 73 -3 72 -3 3 -262z m122 2 l0 -265 -25 0
-25 0 0 258 c0 142 3 262 7 265 3 4 15 7 25 7 17 0 18 -15 18 -265z m228 -2
l2 -263 -80 0 -80 0 0 258 c0 142 3 262 7 266 4 4 39 5 78 4 l70 -3 3 -262z
m120 0 l2 -263 -25 0 -25 0 0 266 0 265 23 -3 22 -3 3 -262z m222 2 l0 -265
-75 0 -75 0 0 258 c0 142 3 262 7 265 3 4 37 7 75 7 l68 0 0 -265z m128 -2 l2
-263 -30 0 -30 0 0 258 c0 142 3 262 7 266 4 4 16 6 28 4 19 -3 20 -10 23
-265z m102 -358 l0 -25 -650 0 -650 0 0 25 0 25 650 0 650 0 0 -25z"/>
</g>
</svg>
