<?xml version="1.0" standalone="no"?>
<!DOCTYPE svg PUBLIC "-//W3C//DTD SVG 20010904//EN"
 "http://www.w3.org/TR/2001/REC-SVG-20010904/DTD/svg10.dtd">
<svg version="1.0" xmlns="http://www.w3.org/2000/svg"
 width="512.000000pt" height="512.000000pt" viewBox="0 0 512.000000 512.000000"
 preserveAspectRatio="xMidYMid meet">

<g transform="translate(0.000000,512.000000) scale(0.100000,-0.100000)"
fill="#000000" stroke="none">
<path d="M470 4891 c-269 -88 -426 -338 -381 -608 13 -76 56 -179 86 -203 15
-13 87 -16 463 -20 l444 -5 -383 -163 c-258 -110 -392 -172 -407 -189 l-24
-26 5 -436 c5 -461 6 -475 57 -631 79 -238 285 -485 497 -594 l33 -17 0 -197
0 -198 -72 -17 c-161 -37 -268 -168 -268 -326 0 -116 30 -359 50 -414 32 -85
106 -159 236 -236 156 -93 144 -75 144 -206 0 -119 11 -169 40 -185 12 -6 233
-10 579 -10 667 0 601 -16 601 146 l0 105 1208 -1 c1006 -1 1215 1 1257 13
176 49 318 183 377 355 32 94 32 240 0 334 -29 83 -60 130 -92 139 -14 4 -222
7 -462 8 l-438 1 0 455 c0 250 2 455 5 455 3 0 49 -29 103 -65 112 -75 158
-84 205 -41 44 41 44 64 -5 243 l-45 164 101 81 c185 148 202 172 172 242 -19
45 -63 66 -139 66 -30 0 -101 3 -159 6 l-106 7 -58 154 c-31 85 -61 156 -66
159 -9 6 -12 234 -3 234 3 0 49 -29 103 -65 112 -75 158 -84 205 -41 43 40 43
64 -2 230 -22 84 -41 159 -41 168 0 9 51 57 113 106 147 118 162 134 162 181
0 49 -26 87 -67 99 -18 6 -103 14 -189 17 l-156 7 -58 154 c-53 141 -82 194
-105 194 -4 0 -25 33 -45 74 -67 135 -181 239 -316 288 l-64 23 -1520 2
c-1438 2 -1523 1 -1575 -16z m353 -183 c149 -71 244 -203 268 -375 7 -44 9
-88 6 -97 -6 -14 -50 -16 -416 -16 l-409 0 -14 38 c-7 20 -13 75 -13 122 1 71
5 95 27 142 35 76 72 121 134 164 75 52 123 64 239 61 92 -2 106 -5 178 -39z
m2790 10 c74 -35 146 -110 190 -197 l35 -70 -50 -133 c-27 -73 -53 -136 -56
-140 -4 -3 -85 -10 -181 -15 l-173 -9 -29 -32 c-31 -35 -37 -73 -18 -116 6
-13 69 -70 140 -127 71 -57 129 -107 129 -111 0 -5 -18 -73 -40 -153 -49 -177
-50 -206 -11 -246 49 -49 91 -42 211 36 l100 65 0 -108 0 -107 -63 -165 -63
-165 -145 -8 c-191 -10 -207 -14 -241 -47 -21 -22 -28 -38 -28 -69 0 -49 10
-60 160 -181 63 -51 116 -96 118 -100 1 -4 -15 -73 -38 -154 -49 -178 -50
-207 -11 -247 49 -49 91 -42 211 36 l100 65 0 -455 0 -455 -810 0 -810 0 0 88
c0 48 -3 97 -6 109 l-6 23 587 0 587 0 29 29 c36 36 37 73 4 106 l-24 25 -739
0 -738 0 -30 31 c-56 60 -165 87 -239 59 -24 -9 -32 -6 -72 29 -57 51 -99 64
-179 59 l-64 -4 0 36 c0 36 1 37 70 64 38 15 108 52 155 81 47 30 85 49 85 44
0 -6 11 -21 25 -34 l24 -25 851 0 851 0 24 25 c32 31 32 66 1 102 l-24 28
-823 5 -823 5 46 52 c57 64 116 150 152 221 l26 52 561 0 561 0 30 30 c25 26
29 36 24 63 -13 70 12 67 -582 67 -294 0 -534 3 -534 8 0 4 7 43 15 87 8 44
14 117 15 163 l0 82 669 0 670 0 20 26 c28 35 26 67 -3 101 l-24 28 -666 3
-666 2 0 165 0 165 671 2 671 3 19 24 c26 32 24 77 -6 106 l-24 25 -661 0
-660 0 -28 30 c-20 22 -123 70 -412 194 l-385 164 -6 159 c-4 98 -13 183 -24
223 -23 88 -79 191 -138 256 l-49 54 1253 -2 1254 -3 58 -27z m366 -536 c59
-162 72 -172 239 -172 50 0 92 -3 92 -7 -1 -5 -30 -30 -66 -58 -91 -70 -124
-109 -124 -148 0 -18 12 -74 26 -126 14 -51 24 -95 22 -97 -2 -2 -45 24 -95
57 -121 80 -134 80 -259 0 -52 -34 -97 -61 -98 -61 -2 0 10 48 27 107 40 146
37 157 -73 246 -47 38 -86 73 -88 77 -2 4 49 9 112 11 113 4 116 5 145 34 16
17 44 72 65 128 21 53 39 97 41 97 1 0 17 -40 34 -88z m-2429 -420 l365 -157
0 -395 c0 -342 -3 -404 -18 -463 -67 -266 -244 -489 -484 -611 -29 -14 -54
-26 -57 -26 -2 0 -6 60 -8 133 -5 147 -17 184 -80 244 -97 93 -260 86 -349
-14 -46 -53 -61 -97 -67 -195 l-5 -87 -31 21 c-56 39 -167 152 -211 213 -54
76 -107 182 -133 265 -35 114 -43 235 -40 585 l3 329 365 157 c201 87 370 158
375 158 6 0 174 -70 375 -157z m2429 -830 c58 -161 73 -172 232 -172 47 0 88
-3 92 -6 3 -4 -29 -35 -73 -70 -124 -101 -127 -108 -84 -263 14 -51 24 -95 22
-97 -2 -2 -44 24 -93 56 -120 80 -137 80 -262 0 -52 -33 -96 -60 -97 -60 -2 0
10 48 26 106 41 147 39 156 -70 245 -48 39 -88 74 -90 79 -2 4 49 9 112 11
113 4 116 5 145 34 16 17 44 72 65 128 21 53 39 97 41 97 1 0 17 -40 34 -88z
m-2818 -568 l24 -26 5 -360 5 -360 24 -19 c13 -10 33 -19 46 -19 28 0 72 34
81 63 12 42 45 67 86 67 49 0 88 -35 88 -80 0 -41 39 -80 81 -80 24 0 40 9 68
40 27 30 44 40 67 40 47 0 65 -20 75 -81 14 -89 82 -119 141 -62 33 31 78 35
108 8 20 -19 21 -26 18 -424 l-3 -406 -29 -60 c-22 -47 -29 -80 -33 -147 l-6
-87 -51 -6 c-28 -3 -229 -5 -446 -3 l-395 3 -5 102 c-7 140 -22 160 -198 265
-141 84 -183 125 -201 197 -14 52 -36 342 -28 372 16 64 82 122 147 131 l25 3
5 -158 c4 -142 7 -160 24 -173 25 -18 77 -18 102 0 18 14 19 35 24 624 l5 610
24 26 c34 36 88 36 122 0z m3701 -1251 c7 -21 13 -76 13 -123 0 -74 -4 -93
-32 -152 -55 -117 -166 -201 -285 -216 -29 -4 -564 -6 -1188 -4 l-1135 3 3
252 c2 139 5 258 7 265 3 9 273 12 1304 12 l1299 0 14 -37z"/>
<path d="M1681 4134 c-12 -15 -21 -37 -21 -49 0 -12 9 -34 21 -49 l20 -26 689
0 c379 0 696 3 705 6 45 18 48 111 5 134 -12 6 -278 10 -709 10 l-690 0 -20
-26z"/>
<path d="M1565 3298 c-11 -6 -118 -101 -238 -211 l-218 -199 -88 86 c-74 71
-94 86 -120 86 -43 0 -81 -38 -81 -82 0 -28 16 -48 123 -155 113 -114 126
-123 160 -123 31 0 47 8 85 43 26 24 147 134 270 246 216 197 222 203 222 241
0 62 -62 99 -115 68z"/>
</g>
</svg>
