<?xml version="1.0" standalone="no"?>
<!DOCTYPE svg PUBLIC "-//W3C//DTD SVG 20010904//EN"
 "http://www.w3.org/TR/2001/REC-SVG-20010904/DTD/svg10.dtd">
<svg version="1.0" xmlns="http://www.w3.org/2000/svg"
 width="1200.000000pt" height="1200.000000pt" viewBox="0 0 1200.000000 1200.000000"
 preserveAspectRatio="xMidYMid meet">

<g transform="translate(0.000000,1200.000000) scale(0.100000,-0.100000)"
fill="#000000" stroke="none">
<path d="M5900 10378 c-55 -68 -126 -154 -158 -193 -31 -38 -106 -130 -167
-205 -60 -75 -125 -154 -142 -176 -18 -21 -80 -97 -138 -169 -151 -186 -157
-193 -216 -265 -30 -36 -81 -99 -114 -140 -33 -41 -85 -105 -115 -141 -30 -37
-89 -108 -130 -159 -41 -51 -91 -112 -110 -135 -19 -23 -47 -57 -62 -76 -29
-36 -120 -148 -484 -594 -58 -71 -118 -145 -132 -164 -15 -18 -43 -52 -62 -75
-19 -23 -69 -84 -110 -136 -41 -51 -100 -122 -130 -159 -31 -36 -64 -78 -75
-92 -20 -26 -177 -219 -236 -289 -16 -19 -76 -93 -134 -165 -58 -71 -138 -169
-177 -217 -76 -92 -93 -117 -85 -124 2 -3 112 -21 243 -40 132 -19 340 -51
464 -70 124 -19 315 -47 425 -64 110 -16 220 -33 245 -39 25 -5 101 -17 170
-26 69 -9 188 -27 265 -40 77 -13 179 -29 228 -35 48 -7 87 -15 87 -19 0 -3
-376 -382 -836 -842 l-837 -837 59 -11 c32 -7 86 -18 119 -26 33 -7 116 -23
185 -35 69 -11 141 -25 161 -30 20 -6 107 -23 195 -39 87 -16 191 -36 229 -44
39 -8 124 -25 190 -36 67 -12 127 -26 134 -30 10 -7 -2 -31 -51 -102 -114
-165 -321 -470 -532 -784 -66 -97 -140 -206 -414 -608 -37 -54 -78 -116 -92
-137 -32 -49 -126 -188 -275 -405 -64 -93 -159 -233 -210 -310 -52 -77 -142
-210 -201 -295 -58 -85 -113 -168 -123 -184 -9 -16 -27 -41 -39 -57 -13 -16
-19 -29 -14 -29 9 0 93 58 182 125 45 33 108 80 187 136 34 24 99 71 144 104
45 33 105 77 133 97 28 20 67 48 86 63 99 74 154 114 205 150 50 35 157 113
280 203 89 65 248 181 331 241 143 103 164 119 259 189 50 37 101 75 115 84
40 28 202 144 240 173 38 29 150 111 243 178 32 23 106 77 165 119 59 42 123
89 142 103 128 95 286 211 375 274 39 27 106 76 149 108 44 32 102 75 130 95
28 20 67 48 86 63 19 14 85 62 145 105 61 44 148 108 194 142 47 35 96 71 110
80 14 9 85 59 156 112 72 52 155 113 185 135 30 22 89 64 130 95 41 30 93 68
115 83 95 69 116 85 113 88 -2 2 -100 11 -218 20 -215 15 -517 41 -598 51
l-44 6 34 32 c18 18 74 69 123 112 50 44 115 102 145 130 66 62 326 295 464
418 56 49 106 95 111 102 6 7 56 52 111 101 87 75 226 200 465 417 31 28 92
83 135 121 43 39 106 95 139 125 33 31 106 97 162 147 l102 92 -50 16 c-27 9
-98 30 -157 46 -140 38 -326 90 -482 134 -69 19 -174 49 -235 65 -60 17 -164
45 -230 64 -248 69 -394 110 -510 142 -66 19 -173 48 -237 66 -110 29 -137 45
-109 63 6 3 72 76 147 163 123 140 173 196 225 250 9 9 89 100 179 202 90 102
198 223 240 270 43 47 167 186 276 310 109 124 205 232 214 240 9 8 48 51 86
95 38 44 141 160 229 259 88 98 200 224 249 280 48 55 123 139 165 186 113
124 232 258 355 400 60 69 119 134 130 145 12 11 53 56 91 100 38 44 105 119
148 168 l79 87 -1616 0 -1616 0 -100 -122z m2528 -275 c-14 -16 -75 -85 -135
-155 -61 -69 -133 -150 -161 -180 -27 -29 -109 -120 -182 -203 -73 -82 -167
-188 -210 -235 -42 -47 -117 -131 -166 -186 -49 -56 -161 -182 -249 -280 -87
-99 -191 -215 -230 -259 -38 -44 -81 -91 -95 -105 -14 -14 -106 -117 -205
-230 -99 -112 -189 -214 -201 -225 -12 -11 -77 -83 -145 -161 -188 -213 -442
-498 -537 -602 -87 -95 -117 -131 -111 -136 7 -6 324 -97 509 -147 116 -31
370 -101 738 -204 70 -19 159 -44 197 -54 227 -60 478 -133 488 -141 4 -4 -9
-22 -30 -40 -21 -18 -81 -72 -133 -120 -52 -48 -142 -129 -200 -180 -58 -51
-127 -114 -155 -140 -27 -25 -95 -86 -150 -135 -55 -48 -102 -91 -105 -95 -3
-3 -90 -82 -195 -175 -104 -93 -194 -174 -200 -181 -5 -6 -53 -49 -105 -94
-52 -45 -102 -90 -110 -99 -8 -9 -53 -50 -100 -91 -47 -41 -110 -97 -140 -125
-187 -169 -255 -230 -335 -301 -88 -77 -146 -133 -142 -135 5 -3 312 -39 503
-60 138 -15 210 -26 207 -33 -2 -6 -40 -36 -84 -66 -44 -30 -95 -65 -112 -78
-103 -75 -253 -182 -302 -217 -32 -22 -74 -52 -94 -67 -80 -60 -109 -81 -176
-128 -38 -27 -101 -72 -140 -100 -87 -64 -239 -173 -285 -205 -19 -14 -60 -43
-90 -65 -30 -22 -71 -51 -90 -64 -20 -13 -76 -53 -125 -89 -50 -37 -103 -76
-120 -87 -54 -38 -292 -209 -390 -280 -73 -53 -218 -155 -233 -164 -20 -12 19
55 99 169 38 55 103 150 143 210 89 132 320 471 414 608 37 54 78 116 92 137
14 21 60 90 102 152 42 62 124 183 182 268 58 85 103 157 100 160 -6 5 -80 23
-299 70 -77 16 -212 46 -300 65 -88 19 -221 48 -296 64 -75 15 -141 31 -147
35 -6 3 346 364 796 816 444 446 808 814 810 819 1 5 -50 16 -115 25 -65 10
-172 26 -238 37 -66 11 -205 34 -310 50 -104 16 -291 45 -415 64 -124 20 -313
49 -420 65 -107 17 -217 34 -245 40 -27 5 -113 19 -190 30 -202 29 -336 54
-333 62 2 4 28 37 58 74 84 103 158 193 237 290 40 49 122 150 183 224 61 74
121 149 135 165 13 17 71 89 130 160 58 72 138 170 178 219 40 48 99 121 132
161 33 40 93 113 132 161 69 85 253 309 314 384 61 76 147 180 199 245 30 38
82 101 115 141 33 39 72 87 87 105 14 19 75 94 135 166 59 73 158 194 218 268
61 75 122 150 137 168 23 28 59 72 184 225 l35 42 1156 0 1157 0 -26 -27z"/>
</g>
</svg>
