<?xml version="1.0" standalone="no"?>
<!DOCTYPE svg PUBLIC "-//W3C//DTD SVG 20010904//EN"
 "http://www.w3.org/TR/2001/REC-SVG-20010904/DTD/svg10.dtd">
<svg version="1.0" xmlns="http://www.w3.org/2000/svg"
 width="512.000000pt" height="512.000000pt" viewBox="0 0 512.000000 512.000000"
 preserveAspectRatio="xMidYMid meet">

<g transform="translate(0.000000,512.000000) scale(0.100000,-0.100000)"
fill="#000000" stroke="none">
<path d="M4260 5105 c-254 -56 -456 -237 -538 -482 -23 -69 -26 -93 -26 -218
0 -185 22 -256 134 -431 12 -20 11 -25 -13 -54 -34 -39 -34 -74 -2 -105 31
-32 66 -32 105 2 29 24 34 25 54 13 157 -101 245 -131 402 -138 132 -5 237 17
350 73 251 127 408 400 391 680 -11 184 -76 326 -211 461 -99 98 -175 144
-301 184 -91 28 -254 36 -345 15z m261 -149 c213 -45 390 -222 435 -435 19
-91 17 -164 -6 -255 -27 -108 -63 -169 -150 -256 l-74 -75 -7 115 c-9 172 -54
252 -177 312 -58 29 -77 33 -142 33 -94 -1 -170 -34 -229 -102 -60 -67 -81
-133 -81 -253 0 -61 -4 -100 -10 -100 -6 0 -38 28 -73 63 -106 106 -167 249
-167 394 0 163 53 288 169 403 87 86 148 122 253 150 88 23 170 25 259 6z
m-58 -720 c39 -16 82 -61 96 -99 6 -16 11 -84 11 -152 l0 -123 -50 -11 c-66
-14 -179 -14 -236 0 l-45 12 3 141 c3 130 5 144 27 175 26 37 90 70 134 71 15
0 42 -6 60 -14z"/>
<path d="M4327 4866 c-131 -47 -192 -194 -133 -321 98 -211 415 -159 442 72
20 169 -149 306 -309 249z m134 -165 c17 -18 29 -40 29 -56 0 -38 -50 -85 -90
-85 -42 0 -80 39 -80 82 1 80 85 115 141 59z"/>
<path d="M580 4386 c-155 -34 -256 -89 -370 -205 -94 -95 -142 -174 -182 -301
-30 -97 -32 -279 -5 -380 56 -204 201 -376 394 -466 98 -46 180 -64 299 -64
124 0 226 24 330 79 60 31 77 36 81 25 9 -23 60 -45 88 -38 52 13 72 81 36
125 -19 23 -18 23 19 69 49 58 102 157 130 240 34 100 39 271 12 378 -65 255
-244 444 -497 522 -90 27 -246 35 -335 16z m251 -150 c163 -35 322 -159 392
-306 89 -187 73 -399 -42 -568 -38 -57 -124 -142 -142 -142 -5 0 -9 45 -9 100
0 167 -51 260 -177 322 -159 78 -337 16 -420 -145 -23 -45 -27 -68 -31 -164
-2 -62 -8 -113 -12 -113 -17 0 -129 119 -156 165 -135 231 -101 513 85 696
139 136 329 193 512 155z m-24 -737 c59 -37 73 -80 73 -228 l0 -131 -27 -7
c-36 -10 -240 -10 -275 0 l-28 7 0 126 c0 137 9 172 56 215 57 52 134 59 201
18z"/>
<path d="M646 4145 c-199 -71 -222 -334 -37 -427 102 -52 213 -31 284 53 111
129 52 326 -111 375 -56 17 -86 17 -136 -1z m125 -164 c55 -56 23 -141 -54
-141 -89 0 -116 117 -37 157 38 19 59 16 91 -16z"/>
<path d="M1869 3731 l-29 -29 0 -937 0 -936 -122 3 -123 3 -3 45 c-3 45 -2 46
50 80 39 26 60 49 81 89 52 104 31 187 -80 324 -102 125 -128 128 -223 29 -88
-91 -134 -179 -134 -252 0 -36 7 -69 21 -96 24 -44 79 -98 112 -109 18 -5 21
-15 21 -61 l0 -54 -139 0 c-139 0 -140 0 -160 -26 -12 -15 -21 -33 -21 -40 0
-26 23 -62 47 -73 17 -8 298 -11 972 -11 l947 0 42 -60 c27 -37 52 -62 68 -66
58 -15 108 41 87 97 l-11 29 175 0 175 0 29 29 c34 35 36 59 8 95 -20 26 -21
26 -160 26 l-139 0 0 54 c0 46 3 56 21 61 33 11 89 65 111 109 14 26 21 61 22
96 1 73 -44 156 -133 251 -57 60 -71 69 -101 69 -30 0 -43 -9 -95 -65 -33 -35
-76 -90 -95 -121 -74 -123 -43 -260 76 -330 44 -26 45 -27 42 -73 l-3 -46
-122 -3 -123 -3 0 499 c0 514 -3 552 -40 572 -27 14 -63 12 -86 -4 -18 -14
-19 -34 -24 -538 l-5 -523 -405 0 -405 0 0 885 0 885 405 0 405 0 3 -226 c2
-211 4 -227 22 -244 28 -25 76 -23 103 4 22 21 22 27 22 297 l0 276 -28 24
-28 24 -500 0 -501 0 -29 -29z m-302 -1505 c38 -55 42 -93 13 -124 -43 -45
-112 -34 -139 22 -11 25 -11 33 2 60 20 43 67 98 80 93 6 -2 26 -25 44 -51z
m1752 15 c47 -59 55 -88 34 -124 -49 -83 -173 -37 -150 56 7 26 65 107 77 107
5 0 22 -17 39 -39z"/>
<path d="M3575 3679 c-30 -28 -57 -60 -61 -71 -15 -48 46 -109 94 -94 11 4 43
31 71 61 58 62 66 97 28 133 -38 36 -71 28 -132 -29z"/>
<path d="M3297 3402 c-53 -54 -62 -97 -27 -132 36 -36 79 -27 133 28 53 54 62
97 27 132 -36 36 -79 27 -133 -28z"/>
<path d="M2114 3417 c-27 -23 -29 -30 -29 -95 0 -83 18 -112 72 -112 55 0 73
27 73 113 0 80 -10 99 -61 112 -20 5 -33 0 -55 -18z"/>
<path d="M2354 3417 c-27 -24 -29 -30 -29 -97 0 -63 3 -74 24 -91 30 -25 76
-24 101 1 28 28 29 158 3 183 -33 29 -68 31 -99 4z"/>
<path d="M2615 3430 c-40 -15 -50 -40 -49 -113 0 -60 3 -72 23 -88 30 -24 72
-24 102 0 21 17 24 28 24 91 0 66 -2 74 -28 96 -30 26 -40 28 -72 14z"/>
<path d="M2130 3027 c-37 -19 -51 -54 -47 -119 4 -72 25 -98 78 -98 54 0 69
26 69 116 0 55 -4 74 -17 86 -27 24 -55 29 -83 15z"/>
<path d="M2370 3027 c-38 -19 -52 -54 -46 -120 5 -72 25 -97 76 -97 56 0 70
22 70 112 0 59 -4 78 -17 90 -27 24 -55 29 -83 15z"/>
<path d="M2615 3030 c-39 -15 -50 -40 -49 -111 0 -83 18 -109 74 -109 57 0 75
27 75 111 0 55 -4 72 -20 88 -25 24 -54 32 -80 21z"/>
<path d="M1295 2985 c-34 -33 -31 -64 10 -118 56 -73 97 -86 140 -42 39 38 33
74 -23 134 -55 59 -88 66 -127 26z"/>
<path d="M1514 2768 c-30 -14 -48 -51 -40 -83 4 -14 25 -46 48 -71 32 -35 47
-44 74 -44 42 0 74 30 74 69 0 45 -85 141 -125 140 -5 0 -20 -5 -31 -11z"/>
<path d="M2104 2609 c-15 -16 -19 -36 -19 -89 0 -83 18 -110 75 -110 56 0 70
22 70 112 0 60 -4 78 -18 91 -27 24 -85 22 -108 -4z"/>
<path d="M2344 2609 c-27 -30 -27 -148 0 -178 25 -27 86 -29 109 -3 25 28 24
163 -1 185 -27 24 -85 22 -108 -4z"/>
<path d="M2584 2609 c-15 -16 -19 -36 -19 -89 0 -83 18 -110 75 -110 57 0 75
27 75 110 0 83 -18 110 -75 110 -25 0 -43 -7 -56 -21z"/>
<path d="M2104 2209 c-29 -32 -27 -150 3 -180 27 -27 75 -29 103 -4 29 26 29
156 0 185 -27 27 -81 26 -106 -1z"/>
<path d="M2344 2209 c-29 -32 -27 -150 3 -180 27 -27 75 -29 103 -4 28 26 30
163 2 188 -27 24 -85 22 -108 -4z"/>
<path d="M2585 2210 c-14 -16 -19 -37 -19 -90 -1 -59 2 -73 21 -91 29 -29 77
-29 106 0 30 30 32 148 3 180 -26 28 -86 29 -111 1z"/>
<path d="M3356 1419 c-38 -30 -34 -69 15 -139 l41 -58 -46 -57 c-102 -125
-156 -280 -156 -448 0 -122 19 -204 70 -312 89 -185 258 -325 460 -381 101
-28 283 -26 380 4 130 41 206 87 305 187 73 72 99 107 133 175 60 121 77 193
76 330 0 92 -4 130 -23 190 -80 260 -264 436 -523 502 -69 17 -102 20 -198 15
-125 -6 -201 -25 -303 -80 -35 -18 -61 -27 -65 -21 -72 104 -82 114 -121 114
-10 0 -30 -9 -45 -21z m686 -150 c100 -21 196 -75 278 -158 227 -229 225 -567
-5 -796 l-70 -70 -6 115 c-5 92 -11 125 -30 165 -99 209 -367 248 -522 75 -61
-68 -77 -119 -77 -247 0 -101 -1 -103 -20 -93 -47 25 -131 125 -169 201 -51
101 -65 170 -58 289 17 344 338 590 679 519z m-38 -732 c25 -14 48 -39 63 -66
20 -39 23 -58 23 -168 l0 -123 -27 -12 c-33 -13 -212 -16 -265 -5 l-38 8 0
135 c0 143 6 169 52 211 51 48 129 56 192 20z"/>
<path d="M3845 1179 c-45 -12 -110 -72 -134 -122 -48 -100 -12 -231 82 -294
174 -117 406 43 357 247 -32 134 -168 209 -305 169z m140 -171 c21 -25 25 -38
21 -62 -8 -39 -31 -63 -66 -71 -80 -18 -134 82 -75 140 36 37 86 34 120 -7z"/>
</g>
</svg>
