<?xml version="1.0" standalone="no"?>
<!DOCTYPE svg PUBLIC "-//W3C//DTD SVG 20010904//EN"
 "http://www.w3.org/TR/2001/REC-SVG-20010904/DTD/svg10.dtd">
<svg version="1.0" xmlns="http://www.w3.org/2000/svg"
 width="175.000000pt" height="175.000000pt" viewBox="0 0 175.000000 175.000000"
 preserveAspectRatio="xMidYMid meet">

<g transform="translate(0.000000,175.000000) scale(0.100000,-0.100000)"
fill="#000000" stroke="none">
<path d="M613 1549 c-19 -19 -16 -81 8 -143 26 -71 83 -121 162 -143 l57 -16
0 -51 0 -51 -61 -12 c-161 -31 -293 -147 -350 -309 -17 -49 -20 -77 -17 -164
3 -93 7 -113 35 -173 45 -95 129 -176 230 -225 71 -33 87 -37 178 -40 82 -3
111 0 159 17 124 44 221 130 278 250 28 57 33 79 36 162 5 110 -11 181 -59
266 -36 62 -118 139 -185 173 -27 14 -51 26 -53 27 -2 1 11 14 28 29 58 49
104 180 80 226 -10 18 -18 20 -70 15 -40 -3 -77 -15 -113 -36 l-54 -30 -7 37
c-16 84 -78 158 -153 180 -68 20 -116 24 -129 11z m137 -78 c33 -17 80 -72 80
-94 0 -6 -13 1 -28 16 -52 50 -91 22 -46 -33 29 -34 16 -40 -26 -10 -31 22
-70 94 -70 128 0 19 4 21 28 16 15 -3 43 -14 62 -23z m331 -173 c-13 -54 -40
-98 -74 -118 -45 -28 -55 -25 -24 8 51 53 18 96 -35 45 -24 -23 -28 -24 -28
-9 0 39 91 101 151 105 14 1 16 -5 10 -31z m-188 -214 c12 -4 10 -17 -13 -77
-31 -78 -41 -85 -94 -67 -41 13 -126 68 -126 81 0 14 85 48 144 58 69 12 72
12 89 5z m141 -34 c5 -5 -1 -27 -13 -52 -12 -26 -21 -64 -21 -91 0 -44 2 -48
68 -103 37 -32 66 -65 65 -73 -1 -9 -5 -37 -9 -63 -9 -65 1 -105 41 -172 l34
-57 -34 -37 c-18 -20 -47 -45 -63 -54 l-30 -18 -41 80 c-48 92 -82 135 -123
156 -31 16 -33 16 -181 -20 l-57 -14 -20 39 c-26 50 -82 87 -143 95 l-48 7 6
46 c13 95 42 162 100 228 l36 42 47 -36 c60 -46 139 -83 177 -83 45 0 71 24
94 86 39 102 49 117 79 109 15 -3 31 -10 36 -15z m126 -88 c87 -90 129 -220
110 -338 -11 -68 -28 -114 -41 -114 -15 0 -51 81 -51 114 0 17 3 59 7 92 l8
61 -67 53 c-36 30 -68 62 -72 72 -6 21 32 108 49 108 6 0 32 -22 57 -48z
m-592 -385 c13 -12 30 -36 37 -54 23 -54 42 -57 162 -28 l107 25 33 -32 c18
-17 51 -66 73 -109 l40 -77 -37 -13 c-54 -18 -168 -16 -233 5 -73 23 -156 81
-203 142 -40 53 -81 149 -71 166 10 15 65 1 92 -25z"/>
<path d="M443 1023 c-81 -104 -115 -200 -116 -328 -2 -104 14 -175 54 -259 50
-102 100 -150 127 -123 14 14 14 18 -2 39 -95 130 -119 193 -120 318 -1 131
32 228 116 332 18 23 19 30 8 43 -20 24 -36 18 -67 -22z"/>
<path d="M1237 1053 c-14 -13 -6 -35 33 -92 62 -91 83 -158 84 -276 1 -135
-26 -214 -108 -318 -28 -35 -29 -38 -13 -55 23 -22 42 -10 88 59 78 117 109
251 90 380 -19 117 -47 186 -114 272 -27 35 -46 45 -60 30z"/>
</g>
</svg>
