<?xml version="1.0" standalone="no"?>
<!DOCTYPE svg PUBLIC "-//W3C//DTD SVG 20010904//EN"
 "http://www.w3.org/TR/2001/REC-SVG-20010904/DTD/svg10.dtd">
<svg version="1.0" xmlns="http://www.w3.org/2000/svg"
 width="146.000000pt" height="168.000000pt" viewBox="0 0 146.000000 168.000000"
 preserveAspectRatio="xMidYMid meet">

<g transform="translate(0.000000,168.000000) scale(0.100000,-0.100000)"
fill="#000000" stroke="none">
<path d="M667 1542 c-13 -14 -17 -38 -17 -90 0 -40 -3 -72 -7 -72 -4 0 -27 10
-52 23 -41 20 -64 22 -213 25 -209 4 -208 5 -208 -121 0 -109 8 -117 116 -117
113 0 124 9 124 107 l0 76 63 -5 c68 -6 106 -22 150 -62 l27 -25 0 -164 c0
-133 -3 -167 -15 -177 -12 -10 -15 -63 -17 -323 l-3 -312 -39 -6 c-47 -8 -56
-20 -56 -86 0 -42 4 -54 19 -63 26 -13 316 -13 342 0 15 9 19 22 19 70 0 64
-12 80 -64 80 l-25 0 -3 309 c-3 278 -5 311 -20 328 -16 17 -18 41 -18 182 l0
162 28 25 c43 40 81 56 149 62 l63 5 0 -76 c0 -98 11 -107 126 -107 107 0 114
7 114 123 0 120 1 119 -212 115 -161 -3 -177 -6 -249 -45 -4 -2 -8 27 -11 66
-2 50 -9 75 -22 90 -24 26 -67 27 -89 3z m-317 -187 c0 -12 -13 -15 -60 -15
-47 0 -60 3 -60 15 0 12 13 15 60 15 47 0 60 -3 60 -15z m840 0 c0 -12 -13
-15 -60 -15 -47 0 -60 3 -60 15 0 12 13 15 60 15 47 0 60 -3 60 -15z m-840
-90 c0 -12 -13 -15 -60 -15 -47 0 -60 3 -60 15 0 12 13 15 60 15 47 0 60 -3
60 -15z m840 0 c0 -12 -13 -15 -60 -15 -47 0 -60 3 -60 15 0 12 13 15 60 15
47 0 60 -3 60 -15z m-450 -670 l0 -295 -30 0 -30 0 0 295 0 295 30 0 30 0 0
-295z m100 -375 c0 -19 -7 -20 -130 -20 -123 0 -130 1 -130 20 0 19 7 20 130
20 123 0 130 -1 130 -20z"/>
<path d="M160 1145 c-27 -27 -31 -38 -22 -47 10 -10 20 -5 48 24 20 20 33 41
30 47 -11 17 -20 14 -56 -24z"/>
<path d="M364 1169 c-3 -6 10 -27 30 -47 28 -29 38 -34 48 -24 9 9 5 20 -22
47 -36 38 -45 41 -56 24z"/>
<path d="M1000 1145 c-27 -27 -31 -38 -22 -47 10 -10 20 -5 48 24 20 20 33 41
30 47 -11 17 -20 14 -56 -24z"/>
<path d="M1204 1169 c-3 -6 10 -27 30 -47 28 -29 38 -34 48 -24 9 9 5 20 -22
47 -36 38 -45 41 -56 24z"/>
<path d="M277 1154 c-4 -4 -7 -27 -7 -51 0 -37 3 -43 21 -43 18 0 20 5 17 47
-3 44 -15 62 -31 47z"/>
<path d="M1117 1153 c-4 -3 -7 -26 -7 -50 0 -36 3 -43 20 -43 17 0 20 7 20 50
0 35 -4 50 -13 50 -8 0 -17 -3 -20 -7z"/>
</g>
</svg>
