<?xml version="1.0" standalone="no"?>
<!DOCTYPE svg PUBLIC "-//W3C//DTD SVG 20010904//EN"
 "http://www.w3.org/TR/2001/REC-SVG-20010904/DTD/svg10.dtd">
<svg version="1.0" xmlns="http://www.w3.org/2000/svg"
 width="210.000000pt" height="150.000000pt" viewBox="0 0 210.000000 150.000000"
 preserveAspectRatio="xMidYMid meet">

<g transform="translate(0.000000,150.000000) scale(0.100000,-0.100000)"
fill="#000000" stroke="none">
<path d="M540 1150 c-63 -4 -134 -8 -157 -9 -55 -1 -87 -30 -78 -70 5 -26 -2
-36 -76 -104 l-82 -75 -18 -109 c-24 -139 -24 -178 1 -219 24 -37 91 -74 137
-74 27 0 33 -5 43 -36 16 -47 63 -100 111 -125 45 -23 125 -25 172 -5 42 18
92 71 112 118 l15 38 323 0 322 0 25 -52 c34 -70 90 -110 165 -116 95 -8 165
31 212 118 19 34 21 35 95 40 117 8 143 43 136 182 -4 94 -25 147 -69 179 -15
11 -106 42 -201 70 -150 43 -191 60 -319 130 -233 127 -212 122 -504 124 -137
2 -302 -1 -365 -5z m544 -70 c96 -10 132 -25 358 -148 85 -46 141 -68 265
-102 122 -34 164 -50 186 -71 33 -34 34 -49 3 -49 -57 0 -57 -60 0 -70 24 -4
30 -11 32 -36 5 -46 -19 -64 -84 -64 -43 0 -56 4 -60 18 -16 53 -47 103 -76
125 -117 86 -255 50 -324 -85 l-24 -48 -319 0 -319 0 -12 36 c-7 20 -26 52
-43 71 -102 116 -279 89 -347 -52 -24 -49 -33 -52 -85 -31 -42 18 -58 46 -49
91 6 32 9 35 41 35 25 0 43 8 64 29 41 42 39 84 -5 126 l-34 31 92 94 91 93
175 7 c270 10 377 10 474 0z m-837 -286 c4 -13 -24 -27 -37 -19 -5 3 -7 12 -3
21 6 17 34 15 40 -2z m305 -144 c101 -28 128 -166 47 -235 -55 -46 -123 -45
-179 1 -93 79 -41 229 85 243 6 0 27 -4 47 -9z m1078 -6 c49 -20 83 -71 83
-124 0 -123 -144 -184 -231 -97 -68 68 -49 175 38 219 43 22 59 22 110 2z"/>
<path d="M477 1024 c-4 -4 -7 -58 -7 -121 l0 -113 447 2 448 3 10 29 c9 26 7
31 -23 55 -41 35 -169 109 -225 130 -34 13 -97 16 -342 19 -165 2 -304 0 -308
-4z m343 -114 l0 -70 -150 0 -150 0 0 70 0 70 150 0 150 0 0 -70z m274 55 c50
-13 226 -107 226 -121 0 -2 -101 -4 -225 -4 l-225 0 0 70 0 70 83 0 c45 0 109
-7 141 -15z"/>
<path d="M790 685 c-6 -8 -10 -22 -8 -32 3 -17 23 -18 280 -21 272 -2 277 -2
283 18 15 47 1 50 -280 50 -217 0 -265 -3 -275 -15z"/>
<path d="M449 581 c-20 -20 -29 -39 -29 -61 0 -45 47 -90 93 -90 44 0 87 46
87 92 0 41 -48 88 -90 88 -22 0 -41 -9 -61 -29z m91 -36 c26 -32 -13 -81 -47
-59 -23 14 -28 41 -13 59 16 19 44 19 60 0z"/>
<path d="M1521 584 c-88 -74 21 -205 112 -134 49 39 42 116 -14 145 -40 21
-63 19 -98 -11z m91 -49 c14 -32 -5 -57 -41 -53 -18 2 -27 10 -29 26 -7 50 49
72 70 27z"/>
</g>
</svg>
