<?xml version="1.0" standalone="no"?>
<!DOCTYPE svg PUBLIC "-//W3C//DTD SVG 20010904//EN"
 "http://www.w3.org/TR/2001/REC-SVG-20010904/DTD/svg10.dtd">
<svg version="1.0" xmlns="http://www.w3.org/2000/svg"
 width="188.000000pt" height="160.000000pt" viewBox="0 0 188.000000 160.000000"
 preserveAspectRatio="xMidYMid meet">

<g transform="translate(0.000000,160.000000) scale(0.100000,-0.100000)"
fill="#000000" stroke="none">
<path d="M700 1402 c-30 -16 -46 -41 -112 -173 -114 -230 -108 -257 79 -350
62 -30 115 -58 118 -61 3 -3 -6 -30 -21 -60 -32 -66 -28 -101 16 -126 34 -20
37 -35 12 -60 -14 -14 -54 -21 -192 -35 -96 -10 -185 -20 -197 -23 -21 -4 -22
0 -25 58 l-3 63 -115 0 -115 0 0 -195 0 -195 115 0 115 0 3 67 c2 44 7 68 15
69 7 0 118 13 247 27 l235 27 27 50 c15 28 29 54 31 59 2 6 16 5 35 -3 52 -22
78 -8 112 59 17 33 33 60 35 60 3 0 68 -31 145 -70 77 -38 147 -70 155 -70 8
0 25 20 37 44 l21 44 62 4 c50 3 70 10 100 32 53 40 79 104 71 172 -6 50 -5
54 25 74 62 45 62 44 -446 292 -296 145 -485 232 -510 235 -27 3 -51 -2 -75
-15z m499 -251 c224 -109 420 -205 435 -213 l27 -14 -70 -47 -71 -47 -422 205
c-232 113 -424 207 -426 209 -5 5 27 67 46 89 8 9 28 17 44 17 18 0 191 -79
437 -199z m-136 -171 c226 -110 412 -202 414 -204 4 -3 -73 -163 -82 -174 -7
-7 -790 379 -802 395 -7 9 -13 28 -13 41 0 30 49 142 62 142 5 0 194 -90 421
-200z m577 -194 c0 -36 -6 -50 -30 -74 -28 -29 -85 -51 -97 -38 -14 14 34 91
77 122 25 19 46 34 48 34 1 0 2 -20 2 -44z m-680 -51 l89 -45 -19 -42 c-10
-24 -23 -44 -29 -46 -10 -3 -191 85 -191 93 0 15 42 85 50 85 6 0 51 -20 100
-45z m-645 -295 l0 -135 -52 -3 -53 -3 0 141 0 141 53 -3 52 -3 0 -135z"/>
<path d="M1282 794 c-34 -23 -28 -84 10 -102 64 -30 118 48 68 98 -24 24 -48
25 -78 4z m48 -44 c0 -5 -4 -10 -10 -10 -5 0 -10 5 -10 10 0 6 5 10 10 10 6 0
10 -4 10 -10z"/>
</g>
</svg>
