<?xml version="1.0" standalone="no"?>
<!DOCTYPE svg PUBLIC "-//W3C//DTD SVG 20010904//EN"
 "http://www.w3.org/TR/2001/REC-SVG-20010904/DTD/svg10.dtd">
<svg version="1.0" xmlns="http://www.w3.org/2000/svg"
 width="188.000000pt" height="148.000000pt" viewBox="0 0 188.000000 148.000000"
 preserveAspectRatio="xMidYMid meet">

<g transform="translate(0.000000,148.000000) scale(0.100000,-0.100000)"
fill="#000000" stroke="none">
<path d="M663 1273 c-8 -3 -13 -23 -13 -47 l0 -43 -113 -5 c-123 -6 -157 -17
-215 -72 -63 -59 -75 -95 -80 -248 -5 -137 -5 -138 -28 -138 -28 0 -61 -30
-69 -62 -3 -13 -4 -81 -3 -153 3 -121 4 -131 24 -139 15 -7 25 -25 33 -59 23
-101 91 -152 192 -145 43 3 66 11 94 32 40 31 74 94 75 139 l0 27 320 0 320 0
0 -27 c1 -45 35 -108 75 -139 52 -40 142 -45 200 -12 44 26 80 81 89 139 l6
39 63 0 c36 0 68 5 75 12 9 9 12 121 12 444 0 380 -2 434 -16 448 -14 14 -74
16 -522 15 -279 0 -513 -3 -519 -6z m987 -358 l0 -295 -470 0 -470 0 0 295 0
295 470 0 470 0 0 -295z m-998 -77 l3 -273 498 -3 497 -2 0 -70 0 -70 -50 0
c-46 0 -54 4 -83 36 -17 21 -46 43 -64 50 -73 31 -169 5 -215 -56 l-22 -30
-336 0 -336 0 -22 30 c-46 61 -142 87 -215 56 -18 -7 -47 -28 -64 -46 l-33
-34 0 67 0 67 38 0 c21 0 43 5 50 12 9 9 12 69 12 210 0 215 3 230 57 279 47
44 64 48 175 49 l108 0 2 -272z m-412 -198 c0 -11 -7 -20 -15 -20 -8 0 -15 9
-15 20 0 11 7 20 15 20 8 0 15 -9 15 -20z m210 -208 c61 -46 56 -145 -9 -189
-80 -54 -181 0 -181 97 0 98 110 151 190 92z m984 13 c85 -40 87 -168 4 -211
-96 -50 -206 50 -165 149 17 40 68 77 105 77 13 0 38 -7 56 -15z"/>
<path d="M1152 1163 c-10 -4 -44 -52 -85 -120 -5 -7 1 -16 13 -23 18 -9 24 -4
56 45 19 31 41 55 47 52 12 -3 77 -96 77 -109 0 -4 -16 -4 -35 -1 -27 4 -36 2
-41 -11 -4 -9 -4 -19 -1 -23 10 -10 125 -30 135 -24 5 3 21 29 36 58 l26 52
-22 7 c-15 4 -26 0 -37 -15 -16 -21 -17 -20 -49 34 -44 74 -77 95 -120 78z"/>
<path d="M985 959 c-22 -5 -50 -11 -62 -14 -16 -4 -20 -10 -16 -26 5 -18 11
-20 39 -16 19 3 34 4 34 3 0 -2 -12 -24 -26 -50 -47 -84 -14 -136 88 -136 51
0 58 2 58 20 0 16 -7 20 -34 20 -49 0 -86 16 -86 37 0 10 11 36 25 57 l24 39
12 -26 c13 -28 25 -33 48 -18 11 7 8 19 -15 62 -16 29 -33 54 -39 55 -5 1 -28
-2 -50 -7z"/>
<path d="M1357 889 c-17 -10 -16 -12 3 -39 41 -58 18 -90 -64 -90 -47 0 -55 7
-34 28 10 10 8 16 -5 29 -16 16 -19 15 -57 -22 -22 -21 -40 -44 -40 -50 0 -6
18 -28 40 -50 33 -33 41 -36 55 -25 11 9 13 16 5 24 -20 20 -9 26 55 26 57 0
69 3 90 25 31 30 32 65 3 116 -24 43 -25 43 -51 28z"/>
<path d="M425 1061 c-11 -5 -31 -21 -45 -36 -23 -25 -25 -35 -28 -144 -3 -94
-1 -120 11 -129 10 -9 49 -12 123 -10 l109 3 0 160 0 160 -75 2 c-41 1 -84 -2
-95 -6z m125 -156 l0 -115 -75 0 -75 0 0 95 c0 119 11 135 95 135 l55 0 0
-115z"/>
<path d="M502 668 c3 -20 10 -23 51 -26 45 -3 47 -2 47 22 0 24 -3 26 -51 26
-47 0 -50 -2 -47 -22z"/>
<path d="M335 428 c-86 -47 -67 -170 27 -185 47 -7 84 15 104 63 12 29 12 39
0 68 -22 53 -85 79 -131 54z m77 -55 c35 -31 12 -83 -37 -83 -28 0 -56 35 -48
59 16 44 52 54 85 24z"/>
<path d="M1343 430 c-13 -5 -32 -24 -43 -42 -26 -43 -19 -84 22 -122 27 -24
36 -27 72 -23 99 14 119 140 29 186 -25 13 -49 13 -80 1z m76 -54 c16 -19 10
-66 -10 -79 -26 -16 -68 0 -75 29 -12 47 55 87 85 50z"/>
</g>
</svg>
