<?xml version="1.0" standalone="no"?>
<!DOCTYPE svg PUBLIC "-//W3C//DTD SVG 20010904//EN"
 "http://www.w3.org/TR/2001/REC-SVG-20010904/DTD/svg10.dtd">
<svg version="1.0" xmlns="http://www.w3.org/2000/svg"
 width="160.000000pt" height="160.000000pt" viewBox="0 0 160.000000 160.000000"
 preserveAspectRatio="xMidYMid meet">

<g transform="translate(0.000000,160.000000) scale(0.100000,-0.100000)"
fill="#000000" stroke="none">
<path d="M665 1446 c-128 -42 -224 -125 -283 -245 -36 -74 -37 -77 -37 -190 0
-96 4 -127 24 -181 49 -136 220 -439 289 -514 34 -36 80 -56 132 -56 90 0 129
35 246 225 73 119 152 278 181 365 13 40 18 85 18 166 0 107 -1 112 -37 185
-48 97 -121 169 -217 217 -69 34 -82 37 -175 39 -64 2 -116 -2 -141 -11z m235
-72 c204 -61 315 -280 250 -496 -42 -138 -240 -489 -301 -531 -30 -22 -88 -22
-118 -1 -57 40 -248 375 -296 519 -74 221 25 430 244 510 50 19 157 18 221 -1z"/>
<path d="M707 1219 c-11 -6 -25 -26 -33 -45 -12 -29 -19 -34 -49 -34 -22 0
-43 -8 -55 -20 -18 -18 -20 -33 -20 -163 0 -195 -17 -182 242 -182 253 0 238
-12 238 186 0 126 -2 141 -20 159 -12 12 -33 20 -55 20 -30 0 -37 5 -49 34 -8
19 -23 39 -34 45 -26 14 -141 14 -165 0z m128 -69 c-3 -5 -24 -10 -45 -10 -21
0 -42 5 -45 10 -4 6 13 10 45 10 32 0 49 -4 45 -10z m125 -190 l0 -110 -170 0
-170 0 0 110 0 110 170 0 170 0 0 -110z"/>
<path d="M454 400 c-79 -25 -114 -58 -114 -104 0 -88 159 -136 450 -136 219 0
346 23 418 77 25 19 32 31 32 59 0 48 -36 79 -121 105 -89 27 -114 23 -114
-15 0 -28 3 -31 69 -47 80 -20 109 -41 80 -57 -88 -47 -409 -68 -582 -38 -190
33 -204 63 -47 101 46 11 50 14 50 41 0 25 -4 29 -30 31 -16 1 -57 -6 -91 -17z"/>
</g>
</svg>
